SplineFontDB: 3.0
FontName: dejavubb
FullName: dejavubb
FamilyName: dejavubb
Weight: Regular
Copyright: Copyright (c) 2003 by Bitstream, Inc. All Rights Reserved.\nCopyright (c) 2006 by Tavmjong Bah. All Rights Reserved.\nDejaVu changes are in public domain.\nModified by Rogerio Theodoro de Brito to be used as a Blackboard font with TeX. Changes in public domain.\n
Version: 0.0
ItalicAngle: 0
UnderlinePosition: -41
UnderlineWidth: 43
Ascent: 760
Descent: 240
LayerCount: 2
Layer: 0 0 "Back"  1
Layer: 1 0 "Fore"  0
NeedsXUIDChange: 1
FSType: 0
OS2Version: 0
OS2_WeightWidthSlopeOnly: 0
OS2_UseTypoMetrics: 0
CreationTime: 1318071242
ModificationTime: 1318086636
PfmFamily: 33
TTFWeight: 500
TTFWidth: 5
LineGap: 0
VLineGap: 0
OS2TypoAscent: 760
OS2TypoAOffset: 0
OS2TypoDescent: -240
OS2TypoDOffset: 0
OS2TypoLinegap: 200
OS2WinAscent: 928
OS2WinAOffset: 0
OS2WinDescent: 236
OS2WinDOffset: 0
HheadAscent: 928
HheadAOffset: 0
HheadDescent: -236
HheadDOffset: 0
OS2Vendor: 'PfEd'
OS2CodePages: 600001ff.dfff0000
MarkAttachClasses: 1
DEI: 91125

StartChar: uni0000
Encoding: 0 0 0
Width: 600
Flags: W
HStem: -177 56<106 494> 649 56<106 494>
VStem: 50 56<-121 649> 494 56<-121 649>
LayerCount: 2
Fore
SplineSet
50 -177 m 1
 50 705 l 1
 550 705 l 1
 550 -177 l 1
 50 -177 l 1
106 -121 m 1
 494 -121 l 1
 494 649 l 1
 106 649 l 1
 106 -121 l 1
EndSplineSet
Validated: 1
EndChar

StartChar: C
Encoding: 67 67 2
Width: 698
Flags: W
HStem: -14 51<284.621 541.149> 691 51<284.621 541.336>
VStem: 56 59<218.091 509.909> 224 51<92 636>
LayerCount: 2
Fore
SplineSet
56 364 m 0
 56 592 187 742 412 742 c 0
 509 742 583 715 644 673 c 1
 644 615 l 1
 587 657 513 691 414 691 c 0
 361 691 314 683 275 666 c 1
 275 62 l 1
 314 45 361 37 414 37 c 0
 513 37 587 71 644 113 c 1
 644 56 l 1
 582 14 509 -14 412 -14 c 0
 187 -14 56 136 56 364 c 0
224 636 m 1
 152 580 115 491 115 364 c 0
 115 237 152 148 224 92 c 1
 224 636 l 1
EndSplineSet
Validated: 1
EndChar

StartChar: H
Encoding: 72 72 3
Width: 849
Flags: W
HStem: 0 49<147 246 604 703> 357 63<294 555> 680 49<147 246 604 703>
VStem: 98 49<49 680> 246 48<49 357 420 680> 555 49<49 357 420 680> 703 48<49 680>
LayerCount: 2
Fore
SplineSet
604 680 m 1
 604 49 l 1
 703 49 l 1
 703 680 l 1
 604 680 l 1
147 680 m 1
 147 49 l 1
 246 49 l 1
 246 680 l 1
 147 680 l 1
98 729 m 1
 294 729 l 1
 294 420 l 1
 555 420 l 1
 555 729 l 1
 751 729 l 1
 751 0 l 1
 555 0 l 1
 555 357 l 1
 294 357 l 1
 294 0 l 1
 98 0 l 1
 98 729 l 1
EndSplineSet
Validated: 1
EndChar

StartChar: N
Encoding: 78 78 4
Width: 800
Flags: W
HStem: 0 49<524 640> 680 49<160 277>
VStem: 97 49<0 610> 655 49<119 729>
LayerCount: 2
Fore
SplineSet
640 49 m 1
 277 680 l 1
 160 680 l 1
 524 49 l 1
 640 49 l 1
97 729 m 1
 303 729 l 1
 655 119 l 1
 655 729 l 1
 704 729 l 1
 704 0 l 1
 497 0 l 1
 146 610 l 1
 146 0 l 1
 97 0 l 1
 97 729 l 1
EndSplineSet
Validated: 1
EndChar

StartChar: P
Encoding: 80 80 5
Width: 701
Flags: W
HStem: 0 49<146 245> 309 48<294 463.671> 680 49<146 245 294 463.671>
VStem: 98 48<49 680> 245 49<49 309 357 680> 464 52<369 669> 612 54<429.714 608.248>
LayerCount: 2
Fore
SplineSet
146 680 m 1
 146 49 l 1
 245 49 l 1
 245 680 l 1
 146 680 l 1
294 680 m 1
 294 357 l 1
 441 357 l 2
 449 357 457 357 464 358 c 1
 464 679 l 1
 457 680 449 680 441 680 c 2
 294 680 l 1
666 519 m 0
 666 372 571 309 418 309 c 2
 294 309 l 1
 294 0 l 1
 98 0 l 1
 98 729 l 1
 418 729 l 2
 570 729 666 665 666 519 c 0
516 369 m 1
 576 391 612 441 612 519 c 0
 612 597 576 648 516 669 c 1
 516 369 l 1
EndSplineSet
Validated: 1
EndChar

StartChar: Q
Encoding: 81 81 6
Width: 787
Flags: W
HStem: -14 51<283.294 435> 691 51<281.432 508.194>
VStem: 56 59<222.264 505.279> 224 51<93 634> 513 51<94 634> 672 59<223.114 505.118>
LayerCount: 2
Fore
SplineSet
532 13 m 1
 662 -129 l 1
 543 -129 l 1
 435 -12 l 1
 410 -14 l 2
 404 -14 399 -14 394 -14 c 0
 291 -14 209 20 148 89 c 0
 87 158 56 249 56 364 c 0
 56 479 87 570 148 639 c 0
 209 708 291 742 394 742 c 0
 496 742 578 708 639 639 c 0
 700 570 731 479 731 364 c 0
 731 189 656 68 532 13 c 1
275 62 m 1
 310 46 350 37 394 37 c 0
 438 37 478 46 513 62 c 1
 513 667 l 1
 478 683 438 691 394 691 c 0
 350 691 310 683 275 667 c 1
 275 62 l 1
224 634 m 1
 153 577 115 483 115 364 c 0
 115 243 154 151 224 93 c 1
 224 634 l 1
564 94 m 1
 634 152 672 245 672 364 c 0
 672 483 634 576 564 634 c 1
 564 94 l 1
EndSplineSet
Validated: 1
EndChar

StartChar: R
Encoding: 82 82 7
Width: 791
Flags: W
HStem: 0 49<146 245 595 692> 308 49<294 392.719 438 475.671> 680 49<146 245 294 475.671>
VStem: 98 48<49 680> 245 49<49 308 357 680> 476 51<369 669> 624 53<428.874 609.444>
LayerCount: 2
Fore
SplineSet
623 187 m 2
 598 236 574 268 552 284 c 0
 530 300 499 308 460 308 c 10
 438 308 l 17
 463 293 492 252 525 187 c 2
 595 49 l 25
 692 49 l 25
 623 187 l 2
677 519 m 24
 677 420 636 364 563 337 c 1
 580 329 598 314 616 293 c 0
 634 272 654 240 674 199 c 2
 774 0 l 1
 560 0 l 1
 466 187 l 2
 442 236 419 268 396 284 c 0
 373 300 343 308 304 308 c 10
 294 308 l 17
 294 0 l 1
 98 0 l 1
 98 729 l 1
 429 729 l 2
 585 729 677 669 677 519 c 24
294 680 m 1
 294 357 l 1
 453 357 l 2
 461 357 469 357 476 358 c 1
 476 679 l 1
 469 680 461 680 453 680 c 2
 294 680 l 1
527 369 m 1
 589 390 624 440 624 519 c 0
 624 598 589 649 527 669 c 1
 527 369 l 1
146 680 m 1
 146 49 l 1
 245 49 l 1
 245 680 l 1
 146 680 l 1
EndSplineSet
Validated: 1
EndChar

StartChar: Z
Encoding: 90 90 8
Width: 744
Flags: W
HStem: 0 49<108 223 286 700> 680 49<56 447 511 625>
LayerCount: 2
Fore
SplineSet
223 49 m 17
 625 680 l 1
 511 680 l 1
 108 49 l 9
 223 49 l 17
56 729 m 1
 688 729 l 1
 688 680 l 1
 286 49 l 1
 700 49 l 1
 700 0 l 1
 45 0 l 1
 45 49 l 1
 447 680 l 1
 56 680 l 1
 56 729 l 1
EndSplineSet
Validated: 1
EndChar

StartChar: Adieresis
Encoding: 196 196 9
Width: 702
Flags: W
HStem: -8 49<492.798 635.573> 0 49<213 279> 69 44<589.735 635.835> 498 49<80.2666 165 213 279 328 409 458 523 572 661>
VStem: 18 48<405 478.428> 165 48<49 498> 279 49<49 498> 409 49<76.1355 498> 523 49<129.823 498> 636 49<42.0576 69>
LayerCount: 2
Fore
SplineSet
636 44 m 9xbfc0
 636 69 l 17
 572 69 542 91 531 136 c 0
 526 154 523 189 523 242 c 2
 523 498 l 1
 458 498 l 1
 458 228 l 2
 458 174 460 137 464 117 c 0
 468 97 472 83 479 75 c 0
 498 53 525 41 562 41 c 0
 599 41 623 42 636 44 c 9xbfc0
18 405 m 1
 18 514 45 547 154 547 c 2
 661 547 l 1
 661 498 l 1
 572 498 l 1
 572 257 l 2
 572 228 572 208 573 198 c 0
 576 141 595 113 630 113 c 0
 643 113 662 115 685 118 c 1
 685 0 l 1x7fc0
 647 -5 607 -8 564 -8 c 0xbfc0
 482 -8 433 25 419 91 c 0
 412 123 409 180 409 262 c 2
 409 498 l 1
 328 498 l 1
 328 0 l 1
 165 0 l 1x7fc0
 165 498 l 1
 135 498 l 2
 106 498 87 491 79 479 c 0
 71 467 66 442 66 405 c 1
 18 405 l 1
213 49 m 1
 279 49 l 1
 279 498 l 1
 213 498 l 1
 213 49 l 1
EndSplineSet
Validated: 1
EndChar

StartChar: Atilde
Encoding: 195 195 10
Width: 727
Flags: W
HStem: -194 49<390 454> 507 53<75.5774 237.082> 527 20G<579 669>
VStem: 0 49<430 480.141> 342 48<-145 20.2978> 454 49<-145 21.2592>
LayerCount: 2
Fore
SplineSet
230 514 m 1x9c
 287 451 328 352 356 215 c 0
 378 103 390 -17 390 -145 c 1
 454 -145 l 1
 454 -10 442 110 420 215 c 0
 385 381 321 480 230 514 c 1x9c
342 -194 m 1
 342 -19 331 118 308 215 c 0
 262 410 207 507 143 507 c 0
 88 507 57 482 49 430 c 9
 0 430 l 17
 0 462 12 490 35 516 c 0
 61 545 114 560 194 560 c 0xdc
 336 560 429 445 474 215 c 1
 510 348 553 459 605 547 c 1
 669 547 l 17xbc
 603 427 559 316 537 215 c 0
 514 110 503 -26 503 -194 c 1
 342 -194 l 1
EndSplineSet
Validated: 1
EndChar

StartChar: Agrave
Encoding: 192 192 11
Width: 654
Flags: W
HStem: 0 49<146 245> 680 49<146 245 294 648>
VStem: 98 48<49 680> 245 49<49 680>
LayerCount: 2
Fore
SplineSet
146 680 m 1
 146 49 l 1
 245 49 l 1
 245 680 l 1
 146 680 l 1
648 729 m 1
 648 680 l 1
 294 680 l 1
 294 0 l 1
 98 0 l 1
 98 729 l 1
 648 729 l 1
EndSplineSet
Validated: 1
EndChar

StartChar: Aacute
Encoding: 193 193 12
Width: 848
Flags: W
HStem: 0 49<147 246 603 702> 680 49<147 246 294 554 603 702>
VStem: 98 49<49 680> 246 48<49 680> 554 49<49 680> 702 48<49 680>
LayerCount: 2
Fore
SplineSet
603 680 m 1
 603 49 l 1
 702 49 l 1
 702 680 l 1
 603 680 l 1
147 680 m 1
 147 49 l 1
 246 49 l 1
 246 680 l 1
 147 680 l 1
750 0 m 9
 554 0 l 17
 554 680 l 1
 294 680 l 1
 294 0 l 1
 98 0 l 1
 98 729 l 1
 750 729 l 17
 750 0 l 9
EndSplineSet
Validated: 1
EndChar

StartChar: Acircumflex
Encoding: 194 194 13
Width: 810
Flags: W
HStem: -192 48<79 206 279 791> 670 49<90 217 290 778>
LayerCount: 2
Fore
SplineSet
206 -144 m 17
 589 275 l 1
 217 670 l 1
 90 670 l 1
 462 275 l 1
 79 -144 l 9
 206 -144 l 17
778 719 m 17
 778 670 l 1
 290 670 l 1
 662 275 l 1
 279 -144 l 1
 791 -144 l 1
 791 -192 l 1
 12 -192 l 1
 12 -144 l 1
 391 272 l 1
 27 657 l 1
 27 719 l 9
 778 719 l 17
EndSplineSet
Validated: 1
EndChar

StartChar: Aring
Encoding: 197 197 14
Width: 818
Flags: W
HStem: 0 49<101 200 249 463.354> 680 49<224 322 371 581.212>
VStem: 726 60<320.793 562.554>
LayerCount: 2
Fore
SplineSet
436 729 m 2
 577 729 674 700 729 641 c 0
 767 601 786 544 786 471 c 0
 786 439 782 403 775 365 c 0
 727 119 583 0 294 0 c 2
 42 0 l 1
 184 729 l 1
 436 729 l 2
371 680 m 1
 249 49 l 1
 297 49 l 2
 377 49 445 60 501 81 c 1
 611 648 l 1
 563 669 499 680 419 680 c 2
 371 680 l 1
224 680 m 1
 101 49 l 1
 200 49 l 1
 322 680 l 1
 224 680 l 1
658 622 m 1
 558 107 l 1
 642 157 693 244 716 365 c 0
 723 398 726 429 726 457 c 0
 726 532 702 587 658 622 c 1
EndSplineSet
Validated: 1
EndChar

StartChar: AE
Encoding: 198 198 15
Width: 708
Flags: W
HStem: -14 49<209.616 317.41> 0 45<456 521> 511 49<299.482 407.34> 711 49<585 651>
VStem: 44 54<95.8868 332.545>
LayerCount: 2
Fore
SplineSet
246 493 m 1x38
 180 461 127 380 113 307 c 0
 103 256 98 217 98 193 c 0
 98 128 119 77 160 53 c 1
 246 493 l 1x38
332 560 m 0
 416 560 465 526 489 464 c 1
 546 760 l 1
 709 760 l 1
 562 0 l 1
 398 0 l 1x78
 415 82 l 1
 371 25 312 -14 220 -14 c 0xb8
 154 -14 109 7 83 51 c 0
 57 95 44 141 44 189 c 0
 44 215 50 257 61 315 c 0
 72 373 103 428 155 481 c 0
 207 534 266 560 332 560 c 0
585 711 m 1
 456 45 l 1
 521 45 l 1
 651 711 l 1
 585 711 l 1
300 510 m 1
 208 36 l 1
 216 35 224 35 232 35 c 0xb8
 286 35 332 56 371 98 c 0
 410 140 435 187 445 239 c 0
 455 290 460 329 460 353 c 0
 460 391 451 426 433 460 c 0
 415 494 379 511 325 511 c 0
 317 511 308 511 300 510 c 1
EndSplineSet
Validated: 1
EndChar

StartChar: Ccedilla
Encoding: 199 199 16
Width: 615
Flags: W
HStem: -14 54<211.852 430.316> 252 49<260 513.094> 506 54<297.644 450.126>
VStem: 44 57<124.115 318.942> 515 57<301.951 440.478>
LayerCount: 2
Fore
SplineSet
243 476 m 1
 171 436 124 365 106 273 c 0
 102 253 101 235 101 217 c 0
 101 158 124 102 164 73 c 1
 243 476 l 1
280 -14 m 0
 139 -14 44 58 44 197 c 0
 44 219 47 243 52 268 c 0
 83 428 195 560 376 560 c 0
 497 560 572 491 572 369 c 0
 572 346 569 322 564 296 c 2
 555 252 l 1
 250 252 l 1
 211 50 l 1
 234 43 261 40 292 40 c 0
 369 40 443 59 502 85 c 1
 491 28 l 1
 429 4 360 -14 280 -14 c 0
515 353 m 0
 515 447 460 506 367 506 c 0
 343 506 320 504 298 498 c 1
 260 301 l 1
 510 301 l 1
 513 319 515 337 515 353 c 0
EndSplineSet
Validated: 1
EndChar

StartChar: bracketleft
Encoding: 91 91 17
Width: 495
Flags: W
HStem: -132 49<135 232 281 398> 711 49<135 232 281 398>
VStem: 86 49<-83 711> 232 49<-83 711>
LayerCount: 2
Fore
SplineSet
135 711 m 1
 135 -83 l 1
 232 -83 l 1
 232 711 l 1
 135 711 l 1
86 760 m 1
 398 760 l 1
 398 711 l 1
 281 711 l 1
 281 -83 l 1
 398 -83 l 1
 398 -132 l 1
 86 -132 l 1
 86 760 l 1
EndSplineSet
Validated: 1
EndChar

StartChar: bracketright
Encoding: 93 93 18
Width: 495
Flags: W
HStem: -132 49<85 203 251 349> 711 49<85 203 251 349>
VStem: 203 48<-83 711> 349 49<-83 711>
LayerCount: 2
Fore
SplineSet
349 711 m 1
 251 711 l 1
 251 -83 l 1
 349 -83 l 1
 349 711 l 1
398 760 m 1
 398 -132 l 1
 85 -132 l 1
 85 -83 l 1
 203 -83 l 1
 203 711 l 1
 85 711 l 1
 85 760 l 1
 398 760 l 1
EndSplineSet
Validated: 1
EndChar

StartChar: braceleft
Encoding: 123 123 19
Width: 733
Flags: W
HStem: -163 49<353.299 449 493.5 609> 264 70<125 239.862> 711 49<354.151 448 493.5 609>
VStem: 277 49<-87.8887 229.322 368.588 682.867> 424 49<-92.5 689.875>
LayerCount: 2
Fore
SplineSet
326 134 m 2
 326 17 l 2
 326 -32 332 -66 344 -84 c 0
 356 -102 392 -112 449 -114 c 1
 433 -91 424 -53 424 -2 c 2
 424 599 l 2
 424 651 432 689 448 710 c 1
 391 708 356 697 344 680 c 0
 332 663 326 629 326 580 c 2
 326 463 l 2
 326 374 298 319 242 299 c 1
 298 277 326 222 326 134 c 2
155 334 m 2
 250 334 277 367 277 463 c 2
 277 580 l 2
 277 652 291 700 318 724 c 0
 345 748 399 760 480 760 c 2
 609 760 l 1
 609 711 l 1
 583 711 l 2
 491 711 473 692 473 599 c 2
 473 -2 l 2
 473 -94 491 -114 583 -114 c 2
 609 -114 l 1
 609 -163 l 1
 480 -163 l 2
 399 -163 345 -151 318 -127 c 0
 291 -103 277 -55 277 17 c 2
 277 134 l 2
 277 231 250 264 155 264 c 2
 125 264 l 1
 125 334 l 1
 155 334 l 2
EndSplineSet
Validated: 1
EndChar

StartChar: braceright
Encoding: 125 125 20
Width: 733
Flags: W
HStem: -163 49<125 240.5 285 380.449> 264 70<494.138 609> 711 49<125 240.5 286 379.849>
VStem: 261 49<-92.5 689.875> 408 49<-85.8672 229.322 368.588 682.867>
LayerCount: 2
Fore
SplineSet
408 134 m 2
 408 222 436 277 492 299 c 1
 436 319 408 374 408 463 c 2
 408 580 l 2
 408 629 402 663 390 680 c 0
 378 697 343 708 286 710 c 1
 302 689 310 651 310 599 c 2
 310 -2 l 2
 310 -53 301 -91 285 -114 c 1
 342 -112 377 -102 389 -84 c 0
 401 -66 408 -32 408 17 c 2
 408 134 l 2
261 599 m 2
 261 692 243 711 151 711 c 2
 125 711 l 1
 125 760 l 1
 253 760 l 2
 334 760 389 748 416 724 c 0
 443 700 457 652 457 580 c 2
 457 463 l 2
 457 367 484 334 579 334 c 2
 609 334 l 1
 609 264 l 1
 579 264 l 2
 484 264 457 231 457 134 c 2
 457 17 l 2
 457 -55 443 -103 416 -127 c 0
 389 -151 334 -163 253 -163 c 2
 125 -163 l 1
 125 -114 l 1
 151 -114 l 2
 243 -114 261 -94 261 -2 c 2
 261 599 l 2
EndSplineSet
Validated: 1
EndChar

StartChar: A
Encoding: 65 65 21
Width: 740
Flags: W
HStem: 0 49<562 662> 204 48<158 436> 680 49<320 420>
LayerCount: 2
Fore
SplineSet
420 680 m 1
 320 680 l 1
 562 49 l 1
 662 49 l 1
 420 680 l 1
454 729 m 1
 732 0 l 1
 527 0 l 1
 453 204 l 1
 141 204 l 1
 66 0 l 1
 8 0 l 1
 286 729 l 1
 454 729 l 1
297 632 m 1
 158 252 l 1
 436 252 l 1
 297 632 l 1
EndSplineSet
Validated: 1
EndChar

StartChar: B
Encoding: 66 66 22
Width: 730
Flags: W
HStem: 0 49<147 246 293 455.265> 364 49<293 430.3> 680 49<147 246 293 430.531>
VStem: 98 49<49 680> 246 47<49 364 413 680> 431 51<422 671> 461 52<63 349> 584 49<473.752 621.672> 614 49<120.669 290.502>
LayerCount: 2
Fore
SplineSet
398 729 m 2xf880
 533 729 633 676 633 549 c 0xf9
 633 474 601 422 539 392 c 1
 622 360 663 297 663 204 c 0
 663 62 557 0 408 0 c 2
 98 0 l 1
 98 729 l 1
 398 729 l 2xf880
293 364 m 1
 293 49 l 1
 408 49 l 2
 427 49 444 50 461 52 c 1
 461 360 l 1xfa
 444 362 427 364 408 364 c 2
 293 364 l 1
293 680 m 1
 293 413 l 1
 398 413 l 1
 410 414 421 414 431 414 c 1
 431 679 l 1xfc
 421 680 410 680 398 680 c 2
 293 680 l 1
147 680 m 1
 147 49 l 1
 246 49 l 1
 246 680 l 1
 147 680 l 1
513 63 m 1xfa80
 581 85 614 132 614 204 c 0
 614 279 581 327 513 349 c 1
 513 63 l 1xfa80
482 422 m 1xfd
 550 440 584 482 584 549 c 0
 584 613 550 653 482 671 c 1
 482 422 l 1xfd
EndSplineSet
Validated: 1
EndChar

StartChar: D
Encoding: 68 68 23
Width: 818
Flags: W
HStem: 0 49<163 261 310 523.02> 680 49<163 261 310 523.421>
VStem: 113 50<49 680> 261 49<49 680> 556 51<107 622> 716 59<224.682 504.115>
LayerCount: 2
Fore
SplineSet
775 365 m 0
 775 103 634 0 365 0 c 2
 113 0 l 1
 113 729 l 1
 365 729 l 2
 635 729 775 627 775 365 c 0
310 680 m 1
 310 49 l 1
 358 49 l 2
 438 49 504 60 556 81 c 1
 556 648 l 1
 504 669 438 680 358 680 c 2
 310 680 l 1
163 680 m 1
 163 49 l 1
 261 49 l 1
 261 680 l 1
 163 680 l 1
607 107 m 1
 680 156 716 242 716 365 c 0
 716 485 680 571 607 622 c 1
 607 107 l 1
EndSplineSet
Validated: 1
EndChar

StartChar: E
Encoding: 69 69 24
Width: 729
Flags: W
HStem: 0 49<147 246 294 666> 368 49<294 642> 680 49<147 246 294 657>
VStem: 98 49<49 680> 246 48<49 368 417 680>
LayerCount: 2
Fore
SplineSet
147 680 m 1
 147 49 l 1
 246 49 l 1
 246 680 l 1
 147 680 l 1
98 729 m 1
 657 729 l 1
 657 680 l 1
 294 680 l 1
 294 417 l 1
 642 417 l 1
 642 368 l 1
 294 368 l 1
 294 49 l 1
 666 49 l 1
 666 0 l 1
 98 0 l 1
 98 729 l 1
EndSplineSet
Validated: 1
EndChar

StartChar: F
Encoding: 70 70 25
Width: 673
Flags: W
HStem: 0 49<147 246> 368 49<294 584> 680 49<147 246 294 615>
VStem: 98 49<49 680> 246 48<49 368 417 680>
LayerCount: 2
Fore
SplineSet
98 729 m 1
 615 729 l 1
 615 680 l 1
 294 680 l 1
 294 417 l 1
 584 417 l 1
 584 368 l 1
 294 368 l 1
 294 0 l 1
 98 0 l 1
 98 729 l 1
246 680 m 1
 147 680 l 1
 147 49 l 1
 246 49 l 1
 246 680 l 1
EndSplineSet
Validated: 1
EndChar

StartChar: G
Encoding: 71 71 26
Width: 774
Flags: W
HStem: -14 49.124<288.091 564.844> 332 49<434 644> 693 49<287.936 561.25>
VStem: 56 49<223.37 505.038> 214 49<96 632> 644 49<81.8281 332>
LayerCount: 2
Fore
SplineSet
420 742 m 0
 523 742 608 715 674 673 c 1
 674 611 l 1
 604 664 529 693 420 693 c 0
 359 693 307 683 263 662 c 1
 263 66 l 1
 306.894 45.1784 364.406 35.124 422.525 35.124 c 0
 467.684 35.124 513.21 41.1941 553 53 c 0
 586 63 616 77 644 94 c 1
 644 332 l 1
 434 332 l 1
 434 381 l 1
 693 381 l 1
 693 68 l 1
 623 18 534 -14 420 -14 c 0
 189 -14 56 131 56 364 c 0
 56 598 189 742 420 742 c 0
214 632 m 1
 143 576 105 487 105 364 c 0
 105 242 143 152 214 96 c 1
 214 632 l 1
EndSplineSet
Validated: 1
EndChar

StartChar: I
Encoding: 73 73 27
Width: 392
Flags: W
HStem: 0 49<50 99 147 246 294 343> 680 49<50 99 147 246 294 343>
VStem: 99 48<49 680> 246 48<49 680>
LayerCount: 2
Fore
SplineSet
147 680 m 1
 147 49 l 1
 246 49 l 1
 246 680 l 1
 147 680 l 1
50 729 m 1
 343 729 l 1
 343 680 l 1
 294 680 l 1
 294 49 l 1
 343 49 l 1
 343 0 l 1
 50 0 l 1
 50 49 l 1
 99 49 l 1
 99 680 l 1
 50 680 l 1
 50 729 l 1
EndSplineSet
Validated: 1
EndChar

StartChar: J
Encoding: 74 74 28
Width: 391
Flags: W
HStem: -200 49<-52 55.9295> 680 49<147 245>
VStem: 98 49<-105.561 680> 245 48<-80.3293 680>
LayerCount: 2
Fore
SplineSet
147 680 m 1
 147 17 l 2
 147 -62 133 -117 105 -150 c 1
 152 -147 185 -133 206 -109 c 0
 232 -78 245 -25 245 51 c 2
 245 680 l 1
 147 680 l 1
-21 -151 m 2
 79 -151 98 -93 98 17 c 2
 98 729 l 1
 293 729 l 1
 293 51 l 2
 293 -114 241 -200 83 -200 c 2
 -52 -200 l 1
 -52 -151 l 1
 -21 -151 l 2
EndSplineSet
Validated: 1
EndChar

StartChar: K
Encoding: 75 75 29
Width: 752
Flags: W
HStem: 0 49<147 246> 680 49<147 246>
VStem: 98 49<49 680> 246 47<49 351 421 680>
LayerCount: 2
Fore
SplineSet
98 729 m 1
 293 729 l 1
 293 421 l 1
 670 729 l 1
 748 729 l 1
 327 385 l 1
 773 0 l 1
 699 0 l 1
 293 351 l 1
 293 0 l 1
 98 0 l 1
 98 729 l 1
147 680 m 1
 147 49 l 1
 246 49 l 1
 246 680 l 1
 147 680 l 1
EndSplineSet
Validated: 1
EndChar

StartChar: L
Encoding: 76 76 30
Width: 654
Flags: W
HStem: 0 49<147 246 294 649> 679 50<147 246>
VStem: 98 49<48 679> 246 48<49 679>
LayerCount: 2
Fore
SplineSet
98 729 m 1
 294 729 l 1
 294 49 l 1
 649 49 l 1
 649 0 l 1
 98 0 l 1
 98 729 l 1
147 679 m 1
 147 48 l 1
 246 48 l 1
 246 679 l 1
 147 679 l 1
EndSplineSet
Validated: 1
EndChar

StartChar: M
Encoding: 77 77 31
Width: 1024
Flags: W
HStem: 0 49<145 243 782 880> 680 49<145 243 782 880>
VStem: 96 49<49 680> 243 49<49 680> 733 49<49 680> 880 49<49 680>
LayerCount: 2
Fore
SplineSet
733 0 m 1
 733 680 l 1
 529 140 l 25
 495 140 l 25
 292 680 l 1
 292 0 l 1
 96 0 l 1
 96 729 l 1
 326 729 l 1
 512 233 l 1
 699 729 l 1
 929 729 l 1
 929 0 l 1
 733 0 l 1
782 680 m 1
 782 49 l 1
 880 49 l 1
 880 680 l 1
 782 680 l 1
145 680 m 1
 145 49 l 1
 243 49 l 1
 243 680 l 1
 145 680 l 1
EndSplineSet
Validated: 1
EndChar

StartChar: O
Encoding: 79 79 32
Width: 787
Flags: W
HStem: -14 51<282.611 504.372> 691 51<281.151 506.12>
VStem: 56 58<222.095 501.448> 223 51<93 634> 513 51<94 634> 672 59<223.086 505.457>
LayerCount: 2
Fore
SplineSet
56 364 m 0
 56 583 180 742 394 742 c 0
 607 742 731 582 731 364 c 24
 731 250 701 158 639 89 c 24
 577 20 496 -14 394 -14 c 24
 291 -14 209 20 148 89 c 0
 86 157 56 249 56 364 c 0
274 62 m 1
 309 46 350 37 394 37 c 0
 438 37 478 46 513 62 c 1
 513 667 l 1
 478 683 438 691 394 691 c 0
 350 691 309 683 274 667 c 1
 274 62 l 1
223 634 m 1
 152 577 114 483 114 364 c 0
 114 243 153 151 223 93 c 1
 223 634 l 1
564 94 m 1
 634 152 672 245 672 364 c 0
 672 483 634 576 564 634 c 1
 564 94 l 1
56 364 m 24
EndSplineSet
Validated: 1
EndChar

StartChar: S
Encoding: 83 83 33
Width: 634
Flags: W
HStem: -18 38<172.081 366.22> 708 37<267.095 448.565>
VStem: 66 49<430.146 611.899> 153 49<505.851 645.508> 436 48<76.846 236.629> 529 49<115.399 307.159>
LayerCount: 2
Fore
SplineSet
164 647 m 1
 131 617 115 577 115 527 c 0
 115 477 126 439 148 414 c 0
 170 389 210 369 266 356 c 2
 320 343 l 2
 411 322 484 271 484 171 c 0
 484 129 478 95 466 70 c 1
 508 99 529 142 529 200 c 0
 529 323 474 373 370 397 c 1
 316 411 l 1
 259 424 217 442 191 468 c 0
 165 494 153 525 153 562 c 0
 153 599 157 627 164 647 c 1
66 529 m 24
 66 664 174 745 313 745 c 0
 387 745 461 732 535 705 c 9
 535 650 l 17
 468 688 409 708 358 708 c 0
 267 708 202 669 202 584 c 0
 202 546 210 518 228 501 c 0
 246 484 279 470 327 458 c 2
 381 445 l 2
 504 415 578 349 578 202 c 0
 578 56 467 -18 317 -18 c 0
 237 -18 154 -1 69 32 c 1
 69 93 l 1
 142 44 207 20 265 20 c 0
 368 20 436 59 436 153 c 0
 436 245 389 277 309 296 c 2
 254 309 l 2
 188 324 141 348 111 382 c 0
 81 416 66 465 66 529 c 24
EndSplineSet
Validated: 1
EndChar

StartChar: T
Encoding: 84 84 34
Width: 708
Flags: W
HStem: 0 49<306 403> 680 49<-3 257 306 403 452 711>
VStem: 257 49<49 680> 403 49<49 680>
LayerCount: 2
Fore
SplineSet
306 680 m 1
 306 49 l 1
 403 49 l 1
 403 680 l 1
 306 680 l 1
-3 729 m 1
 711 729 l 1
 711 680 l 1
 452 680 l 1
 452 0 l 1
 257 0 l 1
 257 680 l 1
 -3 680 l 1
 -3 729 l 1
EndSplineSet
Validated: 1
EndChar

StartChar: U
Encoding: 85 85 35
Width: 830
Flags: W
HStem: -14 49<340.492 489.508> 680 49<135 233 597 695>
VStem: 86 49<158.577 680> 233 49<105.054 680> 548 49<106.175 680> 695 49<158.577 680>
LayerCount: 2
Fore
SplineSet
597 680 m 1
 597 255 l 2
 597 163 583 96 554 54 c 1
 648 86 695 159 695 274 c 2
 695 680 l 1
 597 680 l 1
135 680 m 1
 135 274 l 2
 135 159 182 85 276 54 c 1
 247 94 233 162 233 255 c 2
 233 680 l 1
 135 680 l 1
415 -14 m 24
 209 -14 86 74 86 274 c 2
 86 729 l 1
 282 729 l 1
 282 255 l 2
 282 177 292 120 313 86 c 0
 334 52 368 35 415 35 c 24
 462 35 496 52 517 86 c 0
 538 120 548 177 548 255 c 2
 548 729 l 1
 744 729 l 1
 744 274 l 2
 744 74 621 -14 415 -14 c 24
EndSplineSet
Validated: 1
EndChar

StartChar: V
Encoding: 86 86 36
Width: 722
Flags: W
HStem: 0 49<316 414> 680 49<75 173>
LayerCount: 2
Fore
SplineSet
75 680 m 1
 316 49 l 9
 414 49 l 17
 173 680 l 1
 75 680 l 1
8 729 m 1
 203 729 l 1
 434 115 l 1
 666 729 l 1
 714 729 l 1
 437 0 l 1
 286 0 l 1
 8 729 l 1
EndSplineSet
Validated: 1
EndChar

StartChar: W
Encoding: 87 87 37
Width: 1107
Flags: W
HStem: 0 49<252 350 754 852> 680 49<94 192 596 693>
LayerCount: 2
Fore
SplineSet
596 680 m 17
 754 49 l 1
 852 49 l 1
 693 680 l 9
 596 680 l 17
94 680 m 17
 252 49 l 1
 350 49 l 1
 192 680 l 9
 94 680 l 17
33 729 m 1
 229 729 l 1
 382 113 l 1
 535 729 l 1
 730 729 l 1
 883 113 l 1
 1036 729 l 1
 1085 729 l 1
 902 0 l 1
 712 0 l 1
 559 633 l 1
 403 0 l 1
 216 0 l 1
 33 729 l 1
EndSplineSet
Validated: 1
EndChar

StartChar: X
Encoding: 88 88 38
Width: 805
Flags: W
HStem: 0 49<564 661> 680 49<145 241>
LayerCount: 2
Fore
SplineSet
145 680 m 1
 564 49 l 1
 661 49 l 1
 241 680 l 1
 145 680 l 1
53 729 m 1
 268 729 l 1
 450 455 l 1
 640 729 l 1
 688 729 l 1
 475 418 l 1
 753 0 l 1
 538 0 l 1
 355 274 l 1
 166 0 l 1
 117 0 l 1
 331 310 l 1
 53 729 l 1
EndSplineSet
Validated: 1
EndChar

StartChar: Y
Encoding: 89 89 39
Width: 707
Flags: W
HStem: 0 49<305 403> 680 49<80 178>
VStem: 256 49<49 347> 403 48<49 347>
LayerCount: 2
Fore
SplineSet
429 384 m 1
 660 729 l 1
 709 729 l 1
 451 347 l 1
 451 0 l 1
 256 0 l 1
 256 347 l 1
 -2 729 l 1
 195 729 l 1
 429 384 l 1
403 347 m 1
 178 680 l 1
 80 680 l 1
 305 347 l 1
 305 49 l 1
 403 49 l 1
 403 347 l 1
EndSplineSet
Validated: 1
EndChar

StartChar: a
Encoding: 97 97 40
Width: 661
Flags: W
HStem: -14 49<160.205 208 257 327.323> 0 49<457 523> 296 49<257.704 408> 510 50<156.865 364.329>
VStem: 60 49<84.7603 238.821> 208 49<38 286> 408 49<49 83 121.24 296 345 467.537> 523 49<49 424.156>
LayerCount: 2
Fore
SplineSet
523 312 m 2x7f
 523 381 510 426 486 448 c 0
 462 470 440 484 420 492 c 1
 444 462 457 424 457 380 c 2
 457 49 l 1
 523 49 l 1
 523 312 l 2x7f
294 560 m 0
 472 560 572 486 572 312 c 2
 572 0 l 1
 408 0 l 1x7f
 408 83 l 1
 376 31 316 -14 243 -14 c 0xbf
 134 -14 60 51 60 159 c 0
 60 296 160 345 306 345 c 2
 408 345 l 1
 408 380 l 2
 408 469 370 510 277 510 c 0
 206 510 149 492 100 465 c 1
 100 522 l 1
 156 540 233 560 294 560 c 0
408 255 m 2
 408 296 l 1
 306 296 l 2
 288 296 272 295 257 294 c 1
 257 35 l 1xbf
 288 36 311 43 327 56 c 0
 343 69 360 87 379 110 c 0
 398 133 408 182 408 255 c 2
208 38 m 1
 208 286 l 1
 186 280 164 269 142 252 c 0
 120 235 109 204 109 159 c 0
 109 87 150 48 208 38 c 1
EndSplineSet
Validated: 1
EndChar

StartChar: b
Encoding: 98 98 41
Width: 708
Flags: W
HStem: -14 49<325.771 431.85> 0 45<121 187> 511 49<321.618 431.85> 711 49<121 187>
VStem: 72 49<45 711> 187 48<45 82 140.959 399.642 464 711> 433 51<53 493> 581 53<143.568 402.73>
LayerCount: 2
Fore
SplineSet
411 -14 m 0xbf
 322 -14 269 23 235 82 c 1
 235 0 l 1
 72 0 l 1x7f
 72 760 l 1
 235 760 l 1
 235 464 l 1
 269 523 322 560 411 560 c 0
 557 560 634 427 634 273 c 0
 634 119 557 -14 411 -14 c 0xbf
581 307 m 0
 581 382 541 462 484 493 c 1
 484 53 l 1
 532 78 562 130 574 193 c 0
 579 217 581 256 581 307 c 0
121 711 m 1
 121 45 l 1
 187 45 l 1
 187 711 l 1
 121 711 l 1
433 510 m 1
 425 511 416 511 408 511 c 0
 354 511 315 494 291 460 c 1
 266 426 250 391 243 353 c 0
 238 329 236 290 236 239 c 0
 236 187 251 140 282 98 c 1
 312 56 354 35 408 35 c 0xbf
 416 35 425 35 433 36 c 1
 433 510 l 1
EndSplineSet
Validated: 1
EndChar

StartChar: c
Encoding: 99 99 42
Width: 549
Flags: W
HStem: -14 49<255.114 451.817> 511 49<253.653 455.794>
VStem: 55 49<156.481 387.032> 203 49<65 480>
LayerCount: 2
Fore
SplineSet
324 35 m 0
 391 35 435 49 488 70 c 1
 488 21 l 1
 441 -1 390 -14 324 -14 c 0
 156 -14 55 102 55 273 c 0
 55 448 157 560 330 560 c 0
 392 560 443 547 488 526 c 1
 488 477 l 1
 452 493 388 511 330 511 c 0
 301 511 275 508 252 501 c 1
 252 44 l 1
 274 38 298 35 324 35 c 0
203 480 m 1
 139 442 104 371 104 273 c 0
 104 176 139 103 203 65 c 1
 203 480 l 1
EndSplineSet
Validated: 1
EndChar

StartChar: d
Encoding: 100 100 43
Width: 708
Flags: W
HStem: -14 49<274.647 379.062> 0 45<520 585> 511 49<274.647 385.076> 711 49<520 585>
VStem: 72 53<144.876 402.73> 222 51<53 493> 471 49<45 82 140.959 401.32 464 711> 585 49<45 711>
LayerCount: 2
Fore
SplineSet
296 560 m 0xbf
 385 560 437 523 471 464 c 1
 471 760 l 1
 634 760 l 1
 634 0 l 1
 471 0 l 1x7f
 471 82 l 1
 437 23 385 -14 296 -14 c 0
 150 -14 72 119 72 273 c 0
 72 427 150 560 296 560 c 0xbf
222 493 m 1
 165 462 125 382 125 307 c 0
 125 256 128 217 133 193 c 0
 145 130 174 78 222 53 c 1
 222 493 l 1
520 711 m 1
 520 45 l 1
 585 45 l 1
 585 711 l 1
 520 711 l 1
273 510 m 1
 273 36 l 1
 281 35 290 35 298 35 c 0xbf
 352 35 394 56 424 98 c 1
 455 140 471 187 471 239 c 0
 471 290 469 329 464 353 c 0
 457 391 441 426 416 460 c 1
 392 494 352 511 298 511 c 0
 290 511 281 511 273 510 c 1
EndSplineSet
Validated: 1
EndChar

StartChar: e
Encoding: 101 101 44
Width: 615
Flags: W
HStem: -14 54<254.834 478.307> 252 49<254 505> 506 54<254.961 408.534>
VStem: 54 52<163.837 387.44> 203 51<73 252 301 476> 505 56<301 400.391>
LayerCount: 2
Fore
SplineSet
322 560 m 0
 475 560 561 451 561 296 c 2
 561 252 l 1
 254 252 l 1
 254 50 l 1
 278 43 306 40 337 40 c 0
 408 40 476 55 539 85 c 1
 539 28 l 1
 476 2 420 -14 338 -14 c 0
 165 -14 54 95 54 268 c 0
 54 440 153 560 322 560 c 0
203 476 m 1
 139 436 106 368 106 273 c 0
 106 185 139 119 203 73 c 1
 203 476 l 1
505 301 m 1
 503 418 436 506 321 506 c 0
 297 506 275 504 254 498 c 1
 254 301 l 1
 505 301 l 1
EndSplineSet
Validated: 1
EndChar

StartChar: f
Encoding: 102 102 45
Width: 465
Flags: W
HStem: 0 49<158 224> 487 49<23 109 272 462> 711 49<306.515 486>
VStem: 109 49<49 487 536 676.271> 224 48<49 487 536 675.97>
LayerCount: 2
Fore
SplineSet
224 585 m 2
 224 639 234 682 258 710 c 1
 182 703 158 671 158 585 c 2
 158 49 l 1
 224 49 l 1
 224 585 l 2
109 585 m 2
 109 708 164 760 286 760 c 2
 486 760 l 1
 486 711 l 1
 401 711 l 2
 305 711 272 681 272 585 c 2
 272 536 l 1
 462 536 l 1
 462 487 l 1
 272 487 l 1
 272 0 l 1
 109 0 l 1
 109 487 l 1
 23 487 l 1
 23 536 l 1
 109 536 l 1
 109 585 l 2
EndSplineSet
Validated: 1
EndChar

StartChar: g
Encoding: 103 103 46
Width: 708
Flags: W
HStem: -208 49<164.434 375.035> -14 49<257.647 367.712> 497 49<503 568> 511 49<257.647 362.062>
VStem: 55 53<143.27 401.124> 205 51<53 493> 454 49<-78.0082 82 144.68 405.041 464 497> 568 49<-55.7031 497>
LayerCount: 2
Fore
SplineSet
503 497 m 1xef
 503 27 l 2
 503 -39 486 -94 451 -140 c 1
 451.143 -140.143 451.378 -140.214 451.704 -140.214 c 0
 455.949 -140.214 475.714 -128.143 511 -104 c 0
 549 -78 568 -21 568 68 c 2
 568 497 l 1
 503 497 l 1xef
322 -208 m 0
 245 -208 181 -198 121 -179 c 1
 121 -117 l 1
 167 -142 214 -159 278 -159 c 0
 398 -159 454 -95 454 27 c 2
 454 82 l 1
 420 23 368 -14 279 -14 c 0
 133 -14 55 119 55 273 c 0
 55 427 133 560 279 560 c 0xdf
 368 560 420 523 454 464 c 1
 454 546 l 1
 617 546 l 1
 617 68 l 2
 617 -123 517 -208 322 -208 c 0
108 239 m 0
 108 164 148 84 205 53 c 1
 205 493 l 1
 157 468 128 416 116 353 c 0
 111 329 108 290 108 239 c 0
256 36 m 1
 264 35 273 35 281 35 c 0
 335 35 374 52 398 86 c 1
 423 120 440 155 447 193 c 0
 452 217 454 256 454 307 c 0
 454 359 438 406 407 448 c 1
 377 490 335 511 281 511 c 0
 273 511 264 511 256 510 c 1
 256 36 l 1
EndSplineSet
Validated: 1
EndChar

StartChar: h
Encoding: 104 104 47
Width: 736
Flags: W
HStem: 0 49<140 206 543 611> 506 54<344.233 503.385> 711 49<140 206>
VStem: 91 49<49 711> 206 48<49 433.345 462 711> 494 49<49 459.39> 611 49<49 440.927>
LayerCount: 2
Fore
SplineSet
500 506 m 1
 529 471 543 421 543 352 c 2
 543 49 l 1
 611 49 l 1
 611 330 l 2
 611 430 580 490 500 506 c 1
140 711 m 1
 140 49 l 1
 206 49 l 1
 206 711 l 1
 140 711 l 1
494 352 m 2
 494 440 470 506 390 506 c 0
 299 506 254 429 254 333 c 2
 254 0 l 1
 91 0 l 1
 91 760 l 1
 254 760 l 1
 254 462 l 1
 296 521 356 560 450 560 c 0
 593 560 660 476 660 330 c 2
 660 0 l 1
 494 0 l 1
 494 352 l 2
EndSplineSet
Validated: 1
EndChar

StartChar: i
Encoding: 105 105 48
Width: 351
Flags: W
HStem: 0 49<161 227> 498 49<161 227> 646 114<149 239>
VStem: 112 49<49 498> 149 90<646 760> 227 49<49 498>
LayerCount: 2
Fore
SplineSet
161 498 m 1xf4
 161 49 l 1
 227 49 l 1
 227 498 l 1
 161 498 l 1xf4
149 760 m 1xe8
 239 760 l 1
 239 646 l 1
 149 646 l 1
 149 760 l 1xe8
112 547 m 1xf4
 276 547 l 1
 276 0 l 9
 112 0 l 1
 112 547 l 1xf4
EndSplineSet
Validated: 1
EndChar

StartChar: j
Encoding: 106 106 49
Width: 351
Flags: W
HStem: -208 49<-20 72.8427> 498 49<141 207> 646 114<129 219>
VStem: 92 49<-139.582 498> 129 90<646 760> 207 49<-112.947 498>
LayerCount: 2
Fore
SplineSet
123 -155 m 1xf4
 185 -142 207 -92 207 -11 c 10
 207 498 l 17
 141 498 l 1
 141 -25 l 2
 141 -84 135 -128 123 -155 c 1xf4
256 -10 m 2
 256 -141 214 -208 88 -208 c 10
 -20 -208 l 17
 -20 -159 l 1
 4 -159 l 2
 39 -159 62 -152 74 -136 c 0
 86 -120 92 -87 92 -37 c 2
 92 547 l 1
 256 547 l 1
 256 -10 l 2
129 760 m 1xe8
 219 760 l 1
 219 646 l 1
 129 646 l 1
 129 760 l 1xe8
EndSplineSet
Validated: 1
EndChar

StartChar: k
Encoding: 107 107 50
Width: 650
Flags: W
HStem: 0 49<140 206> 527 20G<542.305 637> 711 49<140 206>
VStem: 91 49<49 711> 206 48<49 267 311 711>
LayerCount: 2
Fore
SplineSet
91 760 m 1
 254 760 l 1
 254 311 l 1
 569 547 l 1
 637 547 l 1
 297 292 l 1
 649 0 l 1
 576 0 l 1
 254 267 l 1
 254 0 l 1
 91 0 l 1
 91 760 l 1
140 711 m 1
 140 49 l 1
 206 49 l 1
 206 711 l 1
 140 711 l 1
EndSplineSet
Validated: 1
EndChar

StartChar: l
Encoding: 108 108 51
Width: 351
Flags: W
HStem: 0 49<295.16 364> 706 54<161 227>
VStem: 112 49<95.0529 706> 227 49<68.4183 706>
LayerCount: 2
Fore
SplineSet
161 197 m 18
 161 116 183 66 245 53 c 1
 233 80 227 124 227 183 c 2
 227 706 l 1
 161 706 l 9
 161 197 l 18
281 0 m 18
 155 0 112 67 112 198 c 2
 112 760 l 1
 276 760 l 1
 276 171 l 2
 276 120 282 87 294 72 c 0
 306 57 330 49 364 49 c 1
 364 0 l 9
 281 0 l 18
EndSplineSet
Validated: 1
EndChar

StartChar: m
Encoding: 109 109 52
Width: 1141
Flags: W
HStem: 0 49<140 206 543 611 949 1017> 498 49<140 206> 506 54<344.233 502.903 751.457 908.618>
VStem: 91 49<49 498> 206 48<49 433.345 462 498> 494 49<49 459.39> 611 49<49 434.905> 900 49<49 459.39> 1017 49<49 440.927>
LayerCount: 2
Fore
SplineSet
494 352 m 2xbf80
 494 440 470 506 390 506 c 0xbf80
 299 506 254 429 254 333 c 2
 254 0 l 1
 91 0 l 1
 91 547 l 1
 254 547 l 1xdf80
 254 462 l 1
 296 521 356 560 450 560 c 0
 519 560 566 546 592 518 c 0
 618 490 634 464 643 440 c 1
 688 509 753 560 855 560 c 0
 998 560 1066 476 1066 330 c 2
 1066 0 l 1
 900 0 l 1
 900 352 l 2
 900 440 875 506 795 506 c 0
 702 506 660 429 660 330 c 2
 660 0 l 1
 494 0 l 1
 494 352 l 2xbf80
140 498 m 1xdf80
 140 49 l 1
 206 49 l 1
 206 498 l 1
 140 498 l 1xdf80
500 506 m 1xbf80
 529 471 543 421 543 352 c 2
 543 49 l 1
 611 49 l 1
 611 330 l 2
 611 430 580 490 500 506 c 1xbf80
906 506 m 1
 935 471 949 421 949 352 c 2
 949 49 l 1
 1017 49 l 1
 1017 330 l 2
 1017 430 986 490 906 506 c 1
EndSplineSet
Validated: 1
EndChar

StartChar: n
Encoding: 110 110 53
Width: 736
Flags: W
HStem: 0 49<140 206 543 611> 498 49<140 206> 506 54<344.233 503.385>
VStem: 91 49<49 498> 206 48<49 433.345 462 498> 494 49<49 459.39> 611 49<49 440.927>
LayerCount: 2
Fore
SplineSet
500 506 m 1xbe
 529 471 543 421 543 352 c 2
 543 49 l 1
 611 49 l 1
 611 330 l 2
 611 430 580 490 500 506 c 1xbe
140 498 m 1xde
 140 49 l 1
 206 49 l 1
 206 498 l 1
 140 498 l 1xde
494 352 m 2
 494 440 470 506 390 506 c 0xbe
 299 506 254 429 254 333 c 2
 254 0 l 1
 91 0 l 1
 91 547 l 1
 254 547 l 1xde
 254 462 l 1
 296 521 356 560 450 560 c 0xbe
 593 560 660 476 660 330 c 2
 660 0 l 1
 494 0 l 1
 494 352 l 2
EndSplineSet
Validated: 1
EndChar

StartChar: o
Encoding: 111 111 54
Width: 611
Flags: W
HStem: -14 49<253.75 358.12> 511 49<253.75 358.12>
VStem: 55 49<149.011 397.204> 203 49<58 488> 360 49<59 487> 508 49<149.238 396.762>
LayerCount: 2
Fore
SplineSet
55 273 m 0
 55 443 141 560 306 560 c 0
 470 560 557 442 557 273 c 0
 557 104 470 -14 306 -14 c 0
 141 -14 55 104 55 273 c 0
252 40 m 1
 269 36 286 35 306 35 c 0
 326 35 343 36 360 40 c 1
 360 506 l 1
 343 510 326 511 306 511 c 0
 286 511 269 510 252 506 c 1
 252 40 l 1
203 488 m 1
 137 451 104 376 104 273 c 0
 104 170 137 95 203 58 c 1
 203 488 l 1
409 59 m 1
 476 96 508 170 508 273 c 0
 508 376 476 450 409 487 c 1
 409 59 l 1
EndSplineSet
Validated: 1
EndChar

StartChar: p
Encoding: 112 112 55
Width: 708
Flags: W
HStem: -208 49<104 169> -14 49<304.618 414.85> 501 45<104 169> 511 49<308.771 414.85>
VStem: 55 49<-159 501> 169 49<-159 82 146.358 405.041 464 501> 416 51<53 493> 564 53<143.27 402.432>
LayerCount: 2
Fore
SplineSet
394 -14 m 0xdf
 305 -14 252 23 218 82 c 1
 218 -208 l 1
 55 -208 l 1
 55 546 l 1
 218 546 l 1xef
 218 464 l 1
 252 523 305 560 394 560 c 0
 540 560 617 427 617 273 c 0
 617 119 540 -14 394 -14 c 0xdf
467 53 m 1
 524 84 564 164 564 239 c 0
 564 290 562 329 557 353 c 0
 545 416 515 468 467 493 c 1
 467 53 l 1
169 -159 m 1
 169 501 l 1
 104 501 l 1
 104 -159 l 1
 169 -159 l 1
416 36 m 1
 416 510 l 1
 408 511 399 511 391 511 c 0xdf
 337 511 295 490 265 448 c 1
 234 406 219 359 219 307 c 0
 219 256 221 217 226 193 c 0
 233 155 249 120 274 86 c 1
 298 52 337 35 391 35 c 0
 399 35 408 35 416 36 c 1
EndSplineSet
Validated: 1
EndChar

StartChar: q
Encoding: 113 113 56
Width: 708
Flags: W
HStem: -208 49<503 568> -14 49<257.647 367.712> 501 45<503 568> 511 49<257.647 362.062>
VStem: 55 53<143.27 401.124> 205 51<53 493> 454 49<-159 82 144.68 405.041 464 501> 568 49<-159 501>
LayerCount: 2
Fore
SplineSet
279 560 m 0xdf
 368 560 420 523 454 464 c 1
 454 546 l 1
 617 546 l 1xef
 617 -208 l 1
 454 -208 l 1
 454 82 l 1
 420 23 368 -14 279 -14 c 0
 133 -14 55 119 55 273 c 0
 55 427 133 560 279 560 c 0xdf
108 239 m 0
 108 164 148 84 205 53 c 1
 205 493 l 1
 157 468 128 416 116 353 c 0
 111 329 108 290 108 239 c 0
503 -159 m 1
 568 -159 l 1
 568 501 l 1
 503 501 l 1
 503 -159 l 1
256 36 m 1
 264 35 273 35 281 35 c 0
 335 35 374 52 398 86 c 1
 423 120 440 155 447 193 c 0
 452 217 454 256 454 307 c 0
 454 359 438 406 407 448 c 1
 377 490 335 511 281 511 c 0xdf
 273 511 264 511 256 510 c 1
 256 36 l 1
EndSplineSet
Validated: 1
EndChar

StartChar: r
Encoding: 114 114 57
Width: 483
Flags: W
HStem: 0 49<140 205> 498 49<140 205> 507 53<333.453 483.35>
VStem: 91 49<49 498> 205 49<49 425.848 462 498>
LayerCount: 2
Fore
SplineSet
140 498 m 1xd8
 140 49 l 1
 205 49 l 1
 205 498 l 1
 140 498 l 1xd8
412 507 m 0xb8
 303 507 254 429 254 315 c 2
 254 0 l 1
 91 0 l 1
 91 547 l 1
 254 547 l 1xd8
 254 462 l 1
 289 524 345 560 438 560 c 0
 447 560 453 560 458 559 c 2
 484 555 l 25
 484 490 l 1
 465 501 442 507 412 507 c 0xb8
EndSplineSet
Validated: 1
EndChar

StartChar: s
Encoding: 115 115 58
Width: 520
Flags: W
HStem: -14 50<113.797 287.589> 511 49<234.457 410.498>
VStem: 58 49<316.054 463.087> 158 49<372.231 484.551> 319 49<64.1342 180.964> 423 49<91.2943 236.623>
LayerCount: 2
Fore
SplineSet
350 52 m 1
 393 70 423 107 423 160 c 0
 423 195 416 220 402 237 c 0
 387 255 358 270 315 283 c 2
 291 291 l 2
 244 305 211 320 192 338 c 0
 169 360 158 389 158 425 c 0
 158 452 164 476 176 497 c 1
 133 481 107 446 107 391 c 0
 107 358 113 333 125 317 c 0
 138 300 163 287 200 276 c 2
 225 268 l 2
 279 251 315 233 335 214 c 0
 356 193 368 163 368 123 c 0
 368 96 362 73 350 52 c 1
246 -14 m 0
 174 -14 114 1 54 22 c 9
 55 90 l 17
 99 61 148 36 212 36 c 0
 275 36 319 63 319 123 c 0
 319 148 312 167 300 180 c 0
 288 193 258 207 211 221 c 2
 186 229 l 2
 103 255 58 291 58 391 c 24
 58 508 145 560 268 560 c 0
 336 560 395 549 443 529 c 1
 443 470 l 1
 419 486 399 496 384 502 c 0
 369 508 346 511 315 511 c 0
 249 511 207 487 207 425 c 0
 207 403 213 385 226 373 c 0
 239 361 265 348 304 337 c 2
 329 330 l 2
 381 315 419 295 440 269 c 0
 461 243 472 207 472 160 c 0
 472 42 371 -14 246 -14 c 0
EndSplineSet
Validated: 1
EndChar

StartChar: t
Encoding: 116 116 59
Width: 465
Flags: W
HStem: 0 49<272.5 441> 487 49<27 93 256 441> 653 49<142 208>
VStem: 27 115<487 536> 93 49<77.1021 487 536 653> 208 48<64.5715 487 536 653>
LayerCount: 2
Fore
SplineSet
227 52 m 1xec
 213.995 78.0101 207.893 109.198 207.893 145.563 c 0
 207.893 148.345 207.929 151.157 208 154 c 1
 208 653 l 1
 142 653 l 1
 142 180 l 2
 142 124 149 90 164 77 c 0
 179 64 200 56 227 52 c 1xec
276 0 m 2
 137 0 93 42 93 180 c 2
 93 487 l 1xec
 27 487 l 1
 27 536 l 1xf4
 93 536 l 1
 93 702 l 1
 256 702 l 1
 256 536 l 1
 441 536 l 1
 441 487 l 1
 256 487 l 1
 256 154 l 2
 256 69 269 49 349 49 c 2
 441 49 l 1
 441 0 l 1
 276 0 l 2
EndSplineSet
Validated: 1
EndChar

StartChar: u
Encoding: 117 117 60
Width: 739
Flags: W
HStem: -13 54<243.382 402.517> 0 49<543 609> 498 49<135 204 543 609>
VStem: 86 49<109.015 498> 204 48<87.6102 498> 492 51<49 85 109.657 498> 609 49<49 498>
LayerCount: 2
Fore
SplineSet
247 41 m 1xbe
 218 76 204 126 204 195 c 2
 204 498 l 1
 135 498 l 1
 135 217 l 2
 135 117 167 57 247 41 c 1xbe
609 49 m 1x7e
 609 498 l 1
 543 498 l 1
 543 49 l 1
 609 49 l 1x7e
297 -13 m 0xbe
 154 -13 86 71 86 217 c 2
 86 547 l 1
 252 547 l 1
 252 195 l 2
 252 107 277 41 357 41 c 0xbe
 448 41 492 117 492 213 c 2
 492 547 l 1
 658 547 l 1
 658 0 l 1
 492 0 l 1x7e
 492 85 l 1
 450 26 391 -13 297 -13 c 0xbe
EndSplineSet
Validated: 1
EndChar

StartChar: v
Encoding: 118 118 61
Width: 607
Flags: W
HStem: 0 49<269 333> 498 49<100 162>
LayerCount: 2
Fore
SplineSet
100 498 m 1
 269 49 l 1
 333 49 l 1
 162 498 l 1
 100 498 l 1
30 547 m 1
 196 547 l 1
 367 88 l 1
 538 547 l 1
 586 547 l 1
 381 0 l 1
 235 0 l 1
 30 547 l 1
EndSplineSet
Validated: 1
EndChar

StartChar: w
Encoding: 119 119 62
Width: 910
Flags: W
HStem: 0 49<223 289 610 676> 498 49<105 170 493 558>
LayerCount: 2
Fore
SplineSet
493 498 m 1
 610 49 l 1
 676 49 l 1
 558 498 l 1
 493 498 l 1
105 498 m 1
 223 49 l 1
 289 49 l 1
 170 498 l 1
 105 498 l 1
42 547 m 1
 208 547 l 1
 320 120 l 1
 432 547 l 1
 595 547 l 1
 708 120 l 1
 819 547 l 1
 868 547 l 1
 725 0 l 1
 574 0 l 1
 456 448 l 1
 338 0 l 1
 185 0 l 1
 42 547 l 1
EndSplineSet
Validated: 1
EndChar

StartChar: x
Encoding: 120 120 63
Width: 675
Flags: W
HStem: 0 49<468 542> 498 49<134 208>
LayerCount: 2
Fore
SplineSet
134 498 m 1
 468 49 l 1
 542 49 l 1
 208 498 l 1
 134 498 l 1
37 547 m 1
 232 547 l 1
 372 360 l 1
 511 547 l 1
 571 547 l 1
 402 319 l 1
 639 0 l 1
 443 0 l 1
 304 187 l 1
 165 0 l 1
 104 0 l 1
 274 228 l 1
 37 547 l 1
EndSplineSet
Validated: 1
EndChar

StartChar: y
Encoding: 121 121 64
Width: 624
Flags: W
HStem: -208 49<112 246.385> 498 49<103 167>
LayerCount: 2
Fore
SplineSet
103 498 m 1
 314 -20 l 1
 345 55 l 1
 167 498 l 1
 103 498 l 1
30 547 m 1
 201 547 l 1
 371 121 l 1
 542 547 l 1
 595 547 l 1
 355 -51 l 2
 329 -116 304 -158 280 -178 c 0
 256 -198 224 -208 184 -208 c 2
 112 -208 l 1
 112 -159 l 1
 184 -159 l 2
 213 -159 234 -154 247 -143 c 0
 260 -132 274 -112 288 -83 c 1
 30 547 l 1
EndSplineSet
Validated: 1
EndChar

StartChar: z
Encoding: 122 122 65
Width: 589
Flags: W
HStem: 0 49<103 171 231 548> 498 49<55 360 420 488>
LayerCount: 2
Fore
SplineSet
420 498 m 1
 103 49 l 1
 171 49 l 1
 488 498 l 1
 420 498 l 1
55 547 m 1
 548 547 l 1
 548 498 l 1
 231 49 l 1
 548 49 l 1
 548 0 l 1
 43 0 l 1
 43 49 l 1
 360 498 l 1
 55 498 l 1
 55 547 l 1
EndSplineSet
Validated: 1
EndChar

StartChar: zero
Encoding: 48 48 66
Width: 636
Flags: W
HStem: -14 49<263.712 372.288> 693 49<263.712 372.288>
VStem: 66 49<184.594 543.406> 214 49<65 663> 373 49<65 663> 521 49<184.594 543.604>
LayerCount: 2
Fore
SplineSet
318 742 m 0
 400 742 462 710 505 645 c 0
 548 580 570 487 570 364 c 0
 570 241 548 148 505 83 c 0
 462 18 400 -14 318 -14 c 0
 236 -14 174 18 131 83 c 0
 88 148 66 241 66 364 c 0
 66 487 88 580 131 645 c 0
 174 710 236 742 318 742 c 0
422 65 m 1
 488 112 521 212 521 364 c 0
 521 517 488 616 422 663 c 1
 422 65 l 1
373 686 m 1
 356 691 338 693 318 693 c 0
 298 693 280 691 263 686 c 1
 263 42 l 1
 280 37 298 35 318 35 c 0
 338 35 356 37 373 42 c 1
 373 686 l 1
214 663 m 1
 148 616 115 516 115 364 c 0
 115 212 148 112 214 65 c 1
 214 663 l 1
EndSplineSet
Validated: 1
EndChar

StartChar: one
Encoding: 49 49 67
Width: 636
Flags: W
HStem: 0 49<66 228 276 375 423 584> 645 49<52 87.2> 680 49<276 375>
VStem: 228 48<49 680> 375 48<49 680>
LayerCount: 2
Fore
SplineSet
276 680 m 1xb8
 276 49 l 1
 375 49 l 1
 375 680 l 1
 276 680 l 1xb8
423 729 m 17
 423 49 l 1
 584 49 l 1
 584 0 l 1
 66 0 l 1
 66 49 l 1
 228 49 l 1
 228 680 l 1xb8
 52 645 l 1
 52 694 l 1xd8
 228 729 l 9
 423 729 l 17
EndSplineSet
Validated: 1
EndChar

StartChar: two
Encoding: 50 50 68
Width: 636
Flags: W
HStem: 0 49<123 248 306 575> 693 49<151.382 350.586>
VStem: 356 49<451.597 635.035> 493 49<410.839 605.993>
LayerCount: 2
Fore
SplineSet
359 685 m 1
 388 646 405 603 405 546 c 0
 405 513 399 482 388 452 c 0
 377 422 360 390 339 356 c 0
 318 322 274 259 206 164 c 2
 123 49 l 1
 248 49 l 1
 393 274 l 2
 424 323 445 357 456 378 c 0
 481 425 493 473 493 524 c 0
 493 612 436 666 359 685 c 1
356 543 m 0
 356 625 315 693 237 693 c 0
 188 693 131 670 68 621 c 1
 68 691 l 1
 152 725 224 742 283 742 c 0
 430 742 542 664 542 523 c 24
 542 455 524 401 499 355 c 0
 486 331 464 295 434 248 c 2
 306 49 l 1
 575 49 l 1
 575 0 l 1
 63 0 l 1
 64 49 l 1
 65 51 99 98 166 192 c 0
 233 286 277 349 297 381 c 0
 336 443 356 497 356 543 c 0
EndSplineSet
Validated: 1
EndChar

StartChar: three
Encoding: 51 51 69
Width: 636
Flags: W
HStem: -14 49<127.286 358.361> 22 46<76 150.798> 370 49<202 358.156> 664 47<98 194.409> 693 49<139.772 357.551>
VStem: 359 49<57 351 437 674> 490 49<486 627.022> 507 49<121.401 288.436>
LayerCount: 2
Fore
SplineSet
556 212 m 0x2d
 556 55 437 -14 271 -14 c 0xad
 210 -14 145 -2 76 22 c 1
 76 74 l 1
 92 68 l 1x65
 156 46 216 35 271 35 c 0
 304 35 333 37 359 42 c 1
 359 365 l 1
 341 368 323 370 302 370 c 2
 202 370 l 1
 202 419 l 1
 306 419 l 2
 325 419 343 420 359 423 c 1
 359 688 l 1
 340 691 318 693 293 693 c 0xad
 242 693 182 684 111 664 c 1
 98 660 l 1
 98 711 l 1x35
 173 732 239 742 296 742 c 0
 431 742 539 680 539 553 c 0x2e
 539 464 483 413 408 394 c 1
 493 375 556 312 556 212 c 0x2d
408 57 m 1
 474 85 507 136 507 212 c 0
 507 285 461 329 408 351 c 1
 408 57 l 1
408 437 m 1
 450 455 490 494 490 553 c 0x26
 490 609 463 649 408 674 c 1
 408 437 l 1
EndSplineSet
Validated: 1
EndChar

StartChar: four
Encoding: 52 52 70
Width: 636
Flags: W
HStem: 0 49<359 457> 205 49<100 310 505 590> 680 49<357 457>
VStem: 310 49<49 205 254 643> 457 48<49 205 254 680>
LayerCount: 2
Fore
SplineSet
457 680 m 1
 357 680 l 1
 359 49 l 1
 457 49 l 1
 457 680 l 1
310 643 m 1
 100 254 l 1
 310 254 l 1
 310 643 l 1
309 729 m 1
 505 729 l 1
 505 254 l 1
 590 254 l 1
 590 205 l 1
 505 205 l 1
 505 0 l 1
 310 0 l 1
 310 205 l 1
 44 205 l 1
 44 267 l 1
 309 729 l 1
EndSplineSet
Validated: 1
EndChar

StartChar: five
Encoding: 53 53 71
Width: 636
Flags: W
HStem: -14 47<134.486 366.181> 399 47<153.592 250 298 362.678> 680 49<152 250 298 515>
VStem: 103 49<429 680> 250 48<447 680> 367 49<54 378> 516 52<124.618 306.054>
LayerCount: 2
Fore
SplineSet
250 446 m 1
 250 680 l 1
 152 680 l 1
 152 429 l 1
 186 438 218 443 250 446 c 1
416 54 m 1
 482 84 516 138 516 215 c 0
 516 292 482 347 416 378 c 1
 416 54 l 1
298 447 m 1
 459 442 568 373 568 215 c 0
 568 143 544 88 495 47 c 0
 446 6 369 -14 264 -14 c 0
 204 -14 140 -5 72 15 c 1
 72 82 l 1
 134 49 200 33 272 33 c 0
 314 33 346 35 367 39 c 1
 367 394 l 1
 351 397 327 399 292 399 c 0
 233 399 170 386 103 362 c 1
 103 729 l 1
 515 729 l 1
 515 680 l 1
 298 680 l 1
 298 447 l 1
EndSplineSet
Validated: 1
EndChar

StartChar: six
Encoding: 54 54 72
Width: 636
Flags: W
HStem: -14 49.1429<256.57 385.996> 433 49<253.988 416.226> 667 46<456.192 536> 693 49<254.476 506.193>
VStem: 55 49<191.046 520.595> 204 49<67 428.937 471 639> 387 49<55 416> 534 49<130.341 340.326>
LayerCount: 2
Fore
SplineSet
436 55 m 1xcf
 502 87 534 147 534 234 c 0
 534 325 502 386 436 416 c 1
 436 55 l 1xcf
204 639 m 1
 137 581 104 492 104 373 c 0
 104 218 137 116 204 67 c 1
 204 639 l 1
253 42 m 1
 270.143 37.4286 300.673 35.1429 329.851 35.1429 c 0
 351.735 35.1429 372.857 36.4286 387 39 c 1
 387 430 l 1
 374 432 353 433 325 433 c 0
 297 433 274 430 253 424 c 1
 253 42 l 1
55 358 m 0
 55 581 156 742 372 742 c 0xdf
 426 742 481 733 536 713 c 1
 536 661 l 1
 519 667 l 2xef
 469 685 421 693 372 693 c 0xdf
 323 693 284 686 253 671 c 1
 253 471 l 1
 274 478 302 482 336 482 c 0
 492 482 583 389 583 235 c 0
 583 81 486 -14 330 -14 c 0
 125 -14 55 142 55 358 c 0
EndSplineSet
Validated: 1
EndChar

StartChar: seven
Encoding: 55 55 73
Width: 636
Flags: W
HStem: 0 49<204 309> 680 49<32 396 448 552>
LayerCount: 2
Fore
SplineSet
448 680 m 1
 204 49 l 1
 309 49 l 1
 552 680 l 1
 448 680 l 1
32 729 m 1
 604 729 l 1
 604 680 l 1
 342 0 l 9
 133 0 l 17
 396 680 l 25
 32 680 l 1
 32 729 l 1
EndSplineSet
Validated: 1
EndChar

StartChar: eight
Encoding: 56 56 74
Width: 636
Flags: W
HStem: -14 49<235.429 400.571> 364 49<267.751 368.249> 693 49<268.92 367.08>
VStem: 68 50.914<108.344 282.667> 85 49<478.253 626.324> 218 49<49 349 429 677> 369 49<49 349 429 677> 502 49<479.453 627.523> 517.086 50.914<108.344 282.667>
LayerCount: 2
Fore
SplineSet
418 49 m 1xe680
 484.057 72.3143 517.086 120.164 517.086 192.549 c 0
 517.086 194.678 517.057 196.829 517 199 c 0
 515 273 481 324 418 349 c 1
 418 49 l 1xe680
218 677 m 1
 169 657 134 613 134 553 c 0xee
 134 492 168 449 218 429 c 1
 218 677 l 1
68 205 m 0xf680
 68 306 133 368 218 388 c 1
 218 389 l 1
 142 408 85 463 85 553 c 0
 85 679 186 742 318 742 c 0
 450 742 551 679 551 553 c 0xef
 551 463 494 408 418 389 c 1
 418 388 l 1
 504 367 568 306 568 205 c 0
 568 57 471 -14 318 -14 c 0
 165 -14 68 57 68 205 c 0xf680
218 49 m 1
 218 349 l 1
 155 324 121 273 119 199 c 0
 118.943 196.829 118.914 194.678 118.914 192.549 c 0xf6
 118.914 120.164 151.943 72.3143 218 49 c 1
267 38 m 1
 283 36 300 35 318 35 c 0
 336 35 353 36 369 38 c 1
 369 361 l 1
 353 363 336 364 318 364 c 0
 300 364 283 363 267 361 c 1
 267 38 l 1
267 690 m 1
 267 417 l 1
 283 415 299 413 318 413 c 0
 337 413 353 415 369 417 c 1
 369 690 l 1
 353 692 337 693 318 693 c 0
 299 693 283 692 267 690 c 1
418 429 m 1
 467 449 502 493 502 553 c 0xe7
 502 614 468 657 418 677 c 1
 418 429 l 1
EndSplineSet
Validated: 1
EndChar

StartChar: nine
Encoding: 57 57 75
Width: 634
Flags: W
HStem: -14 49<128.807 380.524> 15 46<99 178.808> 246 49<218.774 381.012> 693 49<249.024 378.39>
VStem: 52 49<387.674 597.659> 199 49<312 673> 382 49<89 257 299.063 661> 531 49<207.405 536.954>
LayerCount: 2
Fore
SplineSet
199 673 m 1x3f
 133 641 101 581 101 494 c 0
 101 403 133 342 199 312 c 1
 199 673 l 1x3f
431 89 m 1
 498 147 531 236 531 355 c 0
 531 510 498 612 431 661 c 1
 431 89 l 1
382 686 m 1
 363 691 340 693 312 693 c 0
 284 693 263 692 248 689 c 1
 248 298 l 1
 261 296 281 295 309 295 c 0
 337 295 361 298 382 304 c 1
 382 686 l 1
580 370 m 0
 580 147 479 -14 263 -14 c 0xbf
 209 -14 154 -5 99 15 c 1
 99 67 l 1
 116 61 l 2x7f
 166 43 214 35 263 35 c 0xbf
 312 35 351 42 382 57 c 1
 382 257 l 1
 361 250 333 246 299 246 c 0
 143 246 52 339 52 493 c 0
 52 647 149 742 305 742 c 0
 510 742 580 586 580 370 c 0
EndSplineSet
Validated: 1
EndChar
